<?xml version="1.0" encoding="UTF-8"?>
<!DOCTYPE svg PUBLIC "-//W3C//DTD SVG 1.1//EN" "http://www.w3.org/Graphics/SVG/1.1/DTD/svg11.dtd">
<svg xmlns="http://www.w3.org/2000/svg" version="1.1" width="3333px" height="3333px" style="shape-rendering:geometricPrecision; text-rendering:geometricPrecision; image-rendering:optimizeQuality; fill-rule:evenodd; clip-rule:evenodd" xmlns:xlink="http://www.w3.org/1999/xlink">
<g><path style="opacity:0.999" fill="#fefffe" d="M 1328.5,890.5 C 1485.17,890.333 1641.83,890.5 1798.5,891C 1822.81,894.907 1843.98,905.074 1862,921.5C 1873.39,935.621 1881.06,951.621 1885,969.5C 1887.54,980.4 1889.54,991.4 1891,1002.5C 1891.43,1179.19 1892.43,1355.86 1894,1532.5C 1897.71,1561.63 1907.71,1588.3 1924,1612.5C 1944.22,1639.13 1969.72,1645.96 2000.5,1633C 2012.49,1625.68 2023.33,1616.85 2033,1606.5C 2101.57,1533.95 2160.9,1454.62 2211,1368.5C 2257.43,1288.63 2299.43,1206.3 2337,1121.5C 2354.8,1078.42 2372.8,1035.42 2391,992.5C 2408.01,961.733 2434.17,945.233 2469.5,943C 2628.5,942.212 2787.5,942.545 2946.5,944C 2968.37,945.966 2989.03,951.966 3008.5,962C 3027.33,973.818 3036.66,990.985 3036.5,1013.5C 3035.34,1033.8 3031.18,1053.46 3024,1072.5C 3003.74,1128.68 2977.41,1181.68 2945,1231.5C 2905.56,1290.04 2864.9,1347.71 2823,1404.5C 2771.67,1472.5 2720.33,1540.5 2669,1608.5C 2650.6,1632.97 2632.93,1657.97 2616,1683.5C 2604.05,1702.07 2595.38,1722.07 2590,1743.5C 2585.82,1765.02 2588.49,1785.69 2598,1805.5C 2605.43,1819.36 2614.09,1832.36 2624,1844.5C 2634.5,1855.67 2645,1866.83 2655.5,1878C 2699.86,1920.7 2744.53,1963.03 2789.5,2005C 2840.6,2054.09 2888.77,2105.59 2934,2159.5C 2962.62,2194.07 2988.29,2230.73 3011,2269.5C 3024.05,2290.33 3031.72,2313 3034,2337.5C 3036.41,2367.89 3027.74,2394.56 3008,2417.5C 2994.46,2430.52 2978.29,2438.02 2959.5,2440C 2817.16,2440.18 2674.83,2440.68 2532.5,2441.5C 2467.74,2440.64 2409.41,2421.14 2357.5,2383C 2335.51,2366.69 2315.01,2348.52 2296,2328.5C 2242.59,2271.1 2189.93,2213.1 2138,2154.5C 2118.61,2133.76 2097.44,2115.26 2074.5,2099C 2056.44,2086.47 2036.44,2079.31 2014.5,2077.5C 1990.17,2079.25 1970.34,2089.58 1955,2108.5C 1935.04,2136.69 1921.04,2167.69 1913,2201.5C 1909.69,2215.04 1907.03,2228.71 1905,2242.5C 1901.08,2279.45 1897.75,2316.45 1895,2353.5C 1890.38,2398.11 1866.22,2424.94 1822.5,2434C 1795.72,2438.67 1768.72,2441.01 1741.5,2441C 1616.48,2445.91 1494.15,2430.25 1374.5,2394C 1255.54,2355.05 1148.54,2295.71 1053.5,2216C 981.807,2154.64 916.641,2087.14 858,2013.5C 766.167,1894.29 682.167,1769.63 606,1639.5C 494.064,1446.63 393.397,1247.63 304,1042.5C 282.125,983.063 302.625,950.563 365.5,945C 504.834,941.679 644.168,941.679 783.5,945C 821.146,950.324 849.313,969.491 868,1002.5C 889.611,1052.67 911.611,1102.67 934,1152.5C 1000.46,1295.73 1080.12,1430.4 1173,1556.5C 1195,1586.5 1221.5,1611.67 1252.5,1632C 1287.21,1653.2 1315.71,1647.03 1338,1613.5C 1352.43,1585.47 1361.76,1555.8 1366,1524.5C 1381.04,1400.15 1381.04,1275.82 1366,1151.5C 1363.55,1118.15 1353.88,1087.15 1337,1058.5C 1318.54,1031.39 1293.71,1012.55 1262.5,1002C 1247.53,997.872 1232.53,993.872 1217.5,990C 1205.58,984.098 1203.42,975.598 1211,964.5C 1226.21,942.29 1245.04,923.79 1267.5,909C 1286.59,898.316 1306.93,892.149 1328.5,890.5 Z"/></g>
</svg>
