<?xml version="1.0" encoding="UTF-8"?>
<!DOCTYPE svg PUBLIC "-//W3C//DTD SVG 1.1//EN" "http://www.w3.org/Graphics/SVG/1.1/DTD/svg11.dtd">
<svg xmlns="http://www.w3.org/2000/svg" version="1.1" width="3333px" height="3333px" style="shape-rendering:geometricPrecision; text-rendering:geometricPrecision; image-rendering:optimizeQuality; fill-rule:evenodd; clip-rule:evenodd" xmlns:xlink="http://www.w3.org/1999/xlink">
<g><path style="opacity:1" fill="#fefffe" d="M 1892.5,-0.5 C 2086.17,-0.5 2279.83,-0.5 2473.5,-0.5C 2473.5,1110.5 2473.5,2221.5 2473.5,3332.5C 2353.5,3332.5 2233.5,3332.5 2113.5,3332.5C 2113.5,2906.83 2113.5,2481.17 2113.5,2055.5C 2014.5,2055.17 1915.5,2055.5 1816.5,2056.5C 1626.61,2481.62 1437.27,2906.95 1248.5,3332.5C 1109.83,3332.5 971.167,3332.5 832.5,3332.5C 1040.21,2877.4 1248.21,2422.4 1456.5,1967.5C 1215,1843.73 1063.83,1649.07 1003,1383.5C 978.404,1273.38 966.571,1161.88 967.5,1049C 966.117,913.681 984.617,781.181 1023,651.5C 1069.96,495.978 1151.13,361.811 1266.5,249C 1383.89,139.9 1521.23,66.5667 1678.5,29C 1749.05,12.4327 1820.39,2.59941 1892.5,-0.5 Z M 1906.5,302.5 C 1975.83,302.5 2045.17,302.5 2114.5,302.5C 2114.5,787.167 2114.5,1271.83 2114.5,1756.5C 2037.16,1756.88 1959.83,1756.38 1882.5,1755C 1633.71,1741.76 1472.21,1616.6 1398,1379.5C 1377.13,1308.6 1364.13,1236.27 1359,1162.5C 1351.34,1061.22 1354.01,960.224 1367,859.5C 1378.1,772.207 1401.77,688.541 1438,608.5C 1474.03,530.27 1525.53,464.104 1592.5,410C 1671.3,350.137 1760.3,315.47 1859.5,306C 1875.3,304.54 1890.97,303.374 1906.5,302.5 Z"/></g>
</svg>
